<?xml version="1.0" encoding="UTF-8"?>
<!DOCTYPE svg PUBLIC "-//W3C//DTD SVG 1.0//EN"
	"http://www.w3.org/TR/2001/REC-SVG-20010904/DTD/svg10.dtd">
<svg xmlns="http://www.w3.org/2000/svg" version="1.0" width="229.03282" height="300" id="s1">
<g transform="translate(-31.304408,-452.08791)" id="l1">
<path d="M150.41352,752.02256C149.8395,750.11229 149.42447,742.74657 149.60196,737.61843C149.9241,728.30966 150.17585,723.13205 150.4215,720.76459C150.79829,717.13285 152.10216,708.62171 152.341,708.23529C152.69003,707.67059 152.5765,691.90251 152.20124,688.82069C152.01752,687.31167 151.83483,681.8467 151.79525,676.67627C151.72134,667.02566 151.4856,664.88572 150.19672,662.1681C149.55228,660.80922 149.47532,659.91704 149.61926,655.47266C149.71067,652.65244 149.62059,649.30127 149.4191,648.02561C148.21917,640.42643 147.39152,631.7956 147.51452,628.16415C147.636,624.57891 147.76538,623.97204 148.7226,622.49641C150.51232,619.73741 152.53708,614.27275 153.77405,608.86294C155.09546,603.08376 156.0454,598.7944 156.46486,596.71251C156.98684,594.12184 157.88609,591.01948 159.02104,587.89364C160.35016,584.23307 160.47923,578.87879 159.23838,578.87879C159.06488,578.87879 158.42843,579.59227 157.82412,580.46429C157.21981,581.3363 155.03521,583.27786 152.96942,584.77885C148.06552,588.34204 146.11204,590.28332 145.55314,592.14891C145.00751,593.96993 144.95779,596.38359 145.45946,596.69364C145.65821,596.81649 146.21543,598.10264 146.69764,599.55175C147.64915,602.41107 147.79282,605.48374 147.11828,608.54938C146.8906,609.58413 146.50539,611.75357 146.26237,613.37037C146.0193,614.98718 145.68859,617.15487 145.5275,618.18749C145.36637,619.22012 144.95666,620.34286 144.61706,620.68246C144.05506,621.24446 143.9471,621.21663 143.41544,620.37275C143.09412,619.86281 142.71354,618.6102 142.56963,617.58916C142.42573,616.56812 141.61292,613.42209 140.76339,610.59796C138.84198,604.21051 138.70054,601.1355 140.19865,598.31794C140.73759,597.30435 141.17784,596.08753 141.17709,595.61391C141.17467,594.21609 139.88603,592.49784 136.83264,589.8213C132.70212,586.2005 131.77849,585.18027 130.83845,583.20033C129.83766,581.09233 129.04513,580.82346 128.17638,582.29716C127.13593,584.06187 126.65332,587.63718 126.43484,595.19778L126.22952,602.30596L127.37449,603.6247C129.2548,605.79035 134.44714,613.26151 135.45142,615.24643C137.45011,619.19688 137.99182,622.09332 138.03265,629.04835C138.07344,635.98622 138.59093,642.37724 139.20467,643.52415C139.41286,643.9131 139.50145,644.31301 139.40162,644.41287C139.3018,644.5127 139.64112,645.63826 140.15571,646.91409C140.6703,648.18991 141.21342,650.5566 141.36265,652.1734C141.51184,653.79018 141.96301,656.52404 142.36524,658.24861C143.67236,663.85284 143.98687,666.50018 143.76694,670.04861C143.64821,671.96592 143.45702,676.53307 143.34212,680.1978C142.57519,704.66867 142.25884,714.17332 142.14861,716.06119C142.07935,717.24684 141.92026,722.80273 141.79507,728.40761C141.58172,737.95709 141.03479,744.4438 140.37959,745.19543C140.00672,745.62323 135.65208,742.32135 133.04556,739.63442C130.84601,737.36695 130.69235,736.82612 131.38972,733.80427C131.79716,732.03862 132.71113,723.08903 133.34178,714.68937C133.55228,711.88693 133.81836,708.53576 133.93314,707.24232C134.4204,701.75245 134.90379,695.31672 135.46379,686.86094C135.79223,681.90278 136.24524,677.22877 136.47041,676.47427C136.6957,675.71976 136.99267,670.68098 137.13047,665.27698L137.38097,655.45152L136.05898,652.93056C135.05247,651.01118 133.2041,648.8664 128.31304,643.94245C124.77987,640.3855 121.37556,636.73321 120.74792,635.82623L119.60667,634.17718L120.04852,627.79127C120.6854,618.58668 120.69124,599.33329 120.05901,593.18498L119.53507,588.08961L117.61111,585.43989C114.17483,580.70735 114.2101,580.89622 113.96868,565.94446C113.91129,562.38752 113.74523,559.20893 113.59964,558.88094C113.113,557.78446 111.81379,557.32091 108.59614,557.09561C103.40236,556.73192 102.1722,555.9813 94.622066,548.56844C91.018046,545.02995 87.393306,541.55227 86.567026,540.84021C84.919876,539.42076 84.934876,539.67564 86.236196,535.19632L87.027516,532.47264L86.039636,530.6889C85.496316,529.70789 84.812266,528.63505 84.519526,528.30487C83.737406,527.42271 81.296156,521.92303 81.010306,520.39913C80.827686,519.42572 80.959616,518.83431 81.519526,518.11606C82.827476,516.43837 83.511796,514.78915 84.129616,511.82617C85.496596,505.27026 88.663426,496.53963 90.338996,494.70762C92.199966,492.67293 94.851826,494.09171 95.852306,497.65732C96.640336,500.46591 96.656696,503.39154 95.913176,508.52384C95.600786,510.67956 95.339636,513.60852 95.332826,515.03263C95.321546,517.3821 95.443606,517.78322 96.650156,519.36344C98.603596,521.92181 101.18108,523.70675 105.55352,525.5292C106.54696,525.94326 107.79124,526.69588 108.31867,527.20169C114.86651,533.48112 119.22745,536.68166 121.76782,537.07212C124.80014,537.53819 126.44561,539.73338 127.64864,544.91758C128.41725,548.22975 129.99354,551.44232 130.8502,551.44232C131.19837,551.44232 132.07726,551.07519 132.80336,550.62646C133.96179,549.91047 134.12304,549.61055 134.12022,548.17676C134.11596,546.00136 133.43578,539.92602 132.94996,537.72409C132.73598,536.75401 132.49151,535.34301 132.40691,534.58849C132.3222,533.83401 132.05134,532.33478 131.80503,531.25692C130.31079,524.71884 129.66612,522.19712 129.40015,521.85013C128.49323,520.66683 127.0096,515.87309 126.51361,512.52342C125.54985,506.01489 124.19254,504.1857 118.95103,502.33162C116.23216,501.36985 113.74018,499.91534 111.14524,497.77549C110.47152,497.21991 108.79591,495.88614 107.42169,494.81156C106.04752,493.737 104.83498,492.74517 104.72721,492.60757C104.6194,492.46998 103.91123,491.93814 103.1535,491.42574C99.496106,488.95274 97.975286,487.33744 96.556516,484.41894L95.127496,481.47932L94.997256,473.87533L94.867016,466.27141L98.915246,462.43253C101.23095,460.23655 103.88602,458.12308 105.11915,457.49408C107.059,456.50464 107.7263,456.38447 111.78228,456.2942C116.78202,456.18289 117.71442,456.30745 118.61406,457.207C119.50982,458.10285 119.41324,460.95437 118.44545,462.18477C118.01429,462.73288 117.66153,463.34373 117.66153,463.54225C117.66153,463.87988 116.13065,466.41736 114.48295,468.81068C114.08553,469.38799 113.23268,471.94765 113.09519,472.8072C125.06959,480.65448 125.72151,475.01732 121.34029,489.78753L128.02284,491.27805C129.84658,486.20557 131.8129,481.16263 133.07065,475.91196C133.24086,471.44139 126.05226,473.45487 124.04731,470.82742C122.68022,467.35085 125.88095,462.51815 127.59857,459.5787C128.53465,458.20715 131.47768,456.82369 132.76946,457.14791C133.28463,457.27721 135.20675,456.94347 137.08991,456.39775C138.95574,455.85706 140.94761,455.41329 141.51638,455.41165C142.08503,455.41 143.66265,455.07042 145.02211,454.65699C147.16283,454.00604 147.6616,453.97437 148.7457,454.42052C149.43414,454.70391 150.96748,455.06199 152.15313,455.21626C153.33878,455.37052 154.92043,455.87517 155.66798,456.33759C156.41549,456.80005 157.73835,457.37202 158.60757,457.60861C160.07981,458.00933 160.36269,457.94239 162.73578,456.63206L165.28346,455.22532L171.55466,454.98427C177.67474,454.74898 177.89017,454.7112 180.49477,453.41552L183.16362,452.08791L184.60494,452.92375C185.63329,453.52018 186.44704,454.52369 187.44548,456.42668C188.83085,459.06713 188.83888,459.1102 188.24995,460.74797C187.73486,462.18042 187.72675,462.68263 188.18923,464.49371C188.48315,465.64404 189.03696,467.20256 189.42006,467.95706C189.80315,468.71156 190.14866,469.76982 190.18785,470.30875C190.37207,472.84385 190.17285,473.41571 188.77413,474.36614C187.50307,475.22984 184.68499,479.00158 184.68499,479.83906C184.68499,480.02934 184.40305,480.82897 184.05848,481.61607C181.10625,488.3596 180.09724,489.56132 175.70205,491.56804C170.31421,494.02794 168.49755,494.60963 166.20279,494.60963C164.38484,494.60963 163.86121,494.75536 163.54303,495.34987C163.3251,495.75704 162.24801,496.73592 161.14935,497.52523C159.95356,498.38431 158.9227,499.50857 158.58103,500.32642C158.26707,501.07777 157.61112,501.84427 157.12327,502.02974C156.6355,502.21521 155.98887,502.66517 155.68638,503.02964C155.38389,503.39417 153.53917,504.81301 151.58703,506.18272C149.63484,507.55239 147.56029,509.12455 146.97692,509.67634C146.39347,510.22807 145.76281,510.67956 145.57542,510.67956C145.38802,510.67956 144.82634,511.11419 144.32725,511.64544C143.56072,512.46136 143.4567,512.88032 143.65729,514.34366C143.78785,515.29641 144.16295,516.84603 144.49065,517.78718C145.26659,520.01515 145.25606,522.39274 144.46333,523.98182C143.62813,525.65605 143.94064,527.88 145.253,529.60055C146.42808,531.1411 146.51839,532.27318 145.66635,534.78267C145.30769,535.83916 145.05218,537.97787 145.04255,540.00446C145.02892,542.86576 145.17118,543.68247 145.89724,544.91299C146.60103,546.10593 146.96517,546.3663 147.79486,546.27008C148.95639,546.13538 149.1432,545.65469 150.55503,539.16772C151.8344,533.28933 152.72706,532.18142 158.62029,529.15803C160.34487,528.27328 162.99055,526.8391 164.49955,525.97093C166.00854,525.1028 168.47782,523.80799 169.9869,523.09363C173.89694,521.24257 176.4615,519.27607 178.9074,516.25316C183.07507,511.10243 184.75522,506.74675 186.43443,496.74004C186.75657,494.81988 187.26983,493.43214 188.10855,492.2131C188.86444,491.11447 189.49984,489.50692 189.80264,487.92698C190.39814,484.82042 191.47046,482.60817 193.07094,481.18438C195.82474,478.7345 196.58905,480.54354 195.76206,487.55454C195.49516,489.81805 195.11626,493.61016 194.92013,495.98146L194.56366,500.2929L197.16936,502.69139L199.77506,505.0899L199.83746,510.02461C199.87176,512.73875 200.11486,515.61091 200.37765,516.40728L200.85548,517.85518L197.08594,521.53398C192.08397,526.41559 189.53734,529.69881 187.26493,534.19584C186.23028,536.24338 185.07501,538.35992 184.69767,538.89924C183.42136,540.72345 180.91431,546.52051 179.56249,550.77312L178.21779,555.00332L174.13499,558.80808C171.88944,560.90075 169.47114,563.05383 168.76089,563.59276C166.97148,564.95067 166.26331,566.61035 166.26331,569.4463C166.26331,571.19378 166.51695,572.35438 167.19243,573.69849C167.70349,574.71528 168.25347,575.98818 168.41468,576.5271C168.57584,577.06604 168.98947,577.82738 169.33373,578.21899C170.1521,579.14993 170.45823,587.66422 169.82295,591.82441C169.42201,594.44979 167.69367,598.86824 167.06763,598.86824C166.01661,598.86824 164.68702,604.30224 164.09477,611.01867C163.9902,612.20431 163.73238,614.49723 163.52185,616.11401C163.31132,617.73081 162.95664,621.96387 162.73366,625.52081C162.28496,632.67941 162.62409,636.51763 163.93191,639.08289C165.93127,643.0046 164.2346,646.51952 157.47047,652.46849L155.14482,654.51388L155.18812,657.55709C155.21204,659.23087 155.51167,661.57039 155.85409,662.75603C158.55789,672.11775 158.62307,672.67072 158.41825,684.50924C158.15061,699.97836 158.26582,708.10447 158.78502,710.37792C159.03122,711.45578 159.31582,713.30775 159.41744,714.49339C159.51911,715.67904 159.80504,717.61919 160.05296,718.80484C160.33008,720.13024 160.50745,725.26317 160.5134,732.13112L160.52319,743.3017L159.4607,744.84539C157.90018,747.11278 150.63407,752.75653 150.41352,752.02256zM167.71676,725.5915C167.61111,725.41578 167.524,721.56809 167.52318,717.04107C167.52169,708.80085 167.00323,700.90153 166.19837,696.85565C165.96251,695.67001 165.72492,691.17238 165.67039,686.86094C165.58204,679.87198 164.85183,672.58311 164.1217,671.40174C163.73403,670.77449 162.35225,661.05137 162.34799,658.92073C162.34298,656.44414 162.94271,655.40732 165.4408,653.57355C167.86889,651.79121 168.29117,651.73598 168.65406,653.15327C168.81965,653.79998 169.50492,656.44564 170.17672,659.03252C172.47696,667.88901 172.60348,668.56847 172.54887,671.77088C172.49097,675.15961 172.47128,675.36038 171.52976,682.15755C170.9561,686.29834 170.84242,689.419 170.92267,698.81541C171.01975,710.17983 170.54545,719.75256 169.72442,722.99868C169.31243,724.62743 168.08807,726.20876 167.71676,725.5915zM126.12175,703.57263C125.98356,703.3491 125.52765,700.50284 125.10858,697.24761C124.68951,693.99238 124.23447,691.14749 124.09734,690.92564C123.96021,690.7038 123.69835,688.99298 123.5153,687.12382C123.33233,685.25466 122.98227,682.75527 122.73749,681.56961C122.15807,678.76301 120.77497,670.23216 120.73578,669.22321C120.71907,668.79206 120.53394,666.85191 120.32439,664.91175C119.93116,661.27121 119.83172,648.6967 120.19332,648.3351C120.75516,647.77328 124.07612,649.95241 126.83007,652.6899L129.92335,655.7648L129.65997,659.55438C129.51513,661.63865 129.30819,665.54868 129.20023,668.24332C129.09222,670.93798 128.91516,674.02458 128.80676,675.10244C128.6984,676.1803 128.44954,680.58975 128.25377,684.90118C127.79031,695.10508 127.11792,703.23403 126.70308,703.64889C126.52148,703.83049 126.25986,703.79617 126.12175,703.57263zM75.032596,547.36582C87.379916,554.85823 85.486566,555.65619 91.726096,557.71324C99.346566,560.22557 102.78548,561.88827 105.28826,567.59708C79.703896,588.77433 64.854536,601.52434 60.338146,609.09587C42.160706,639.56937 56.831126,668.62114 97.102896,660.1951C88.793086,677.32236 51.414506,676.97013 39.282546,657.32452C24.827316,633.91684 26.347746,588.00937 75.032596,547.36582zM198.54291,652.26306C231.73988,656.29649 246.77832,630.1522 225.81486,599.97836C225.81486,599.97836 210.06853,582.78628 188.15318,560.15629C189.89996,551.10096 193.71292,541.33317 206.06814,528.61976C258.33518,565.83196 259.97156,611.59602 260.24485,616.13341C262.73612,657.49688 214.14769,669.5309 198.54291,652.26306z" style="opacity:1;fill:#000" id="p1"/>
</g>
</svg>